<?xml version="1.0" standalone="yes"?>
<svg xmlns="http://www.w3.org/2000/svg" width="771" height="227">
<path style="fill:#080808; stroke:none;" d="M139.001 6.65277C135.72 7.68105 132.965 10.018 131.303 13.0154C130.446 14.5618 129.985 16.2803 129.63 18C129.358 19.3195 129.181 20.6561 129.09 22C128.999 23.3314 129.009 24.6665 129.001 26L129 30L129 48L129 178L129 196L129.004 200C129.016 201.333 129.02 202.675 129.185 204C129.4 205.718 129.826 207.396 130.483 209C131.357 211.135 132.56 213.15 134.214 214.775L136.043 216.297L137.015 216.91L138.004 217.427L140 218.192L142 218.63L144 218.718L146 218.427L147.999 217.771L148.996 217.312L149.985 216.772C150.972 216.136 151.976 215.495 152.812 214.66L154.442 212.906L155.772 210.985L156.312 209.996L156.772 208.999L157.442 207C158.213 204.062 157.883 200.996 158.09 198C158.251 195.653 158.75 193.348 158.91 191C158.979 190.002 158.987 189 158.996 188L159 185L159 177L159 168L158.996 165C158.987 164 158.979 162.998 158.91 162C158.773 159.986 158.39 158.005 158.17 156C158.024 154.673 158.02 153.333 158.004 152L158 148L158 140L158 116L158 45L158 28L157.999 25L157.985 23C157.959 21.9985 157.938 20.9954 157.812 20C157.682 18.9802 157.476 17.9751 157.146 17L156.312 15.0008L155.772 14.0039L155.146 13.0154L153.66 11.1049L151.906 9.39429L150.96 8.65277L149.985 8.00926L148.996 7.45679L147 6.65277L145 6.21759L144 6.12036L143 6.08641L142 6.12036L141 6.21759L139.001 6.65277M93.108 29.7863L91.4336 30.7461L90.179 32.2284L89.4298 34.044L89.2137 35.0154L88.8457 38L88.5764 40L88.2863 42L88.1736 43L88.0787 45C88.0787 47.0204 88.4373 49.0058 88.7145 51L88.9105 53C89.0016 54.3305 88.9964 55.6671 88.9992 57L89 62L89 165L89 181L89.0147 186C89.0564 187.673 89.1222 189.358 89.483 190.999L90.0324 192.981L90.4336 193.941L90.9383 194.852L92.3032 196.396L94.0571 197.377L95.9892 197.704L97.8912 197.377L99.5664 196.396L100.821 194.852L101.566 192.981L101.772 191.995L101.891 190.999L101.985 189L102 186L102 181L102 165L102 121L102 106L102 101L101.985 98C101.961 96.9995 101.939 95.9959 101.83 95L101.576 93L101.285 91C101.162 90.0009 101.083 89.0056 101.039 88C100.981 86.6687 101.001 85.3322 101 84L101 79L101 63L101 45L100.996 39C100.989 37.9982 100.961 37.0033 100.891 36.0039L100.772 35.0154L100.258 33.1088L99.821 32.2284L99.2577 31.4344L97.7716 30.1944L96.892 29.7863L95.9599 29.5424L95 29.4568L93.108 29.7863M60.3032 57.0471L58.9383 58.3187L58.4336 59.1481L58.0324 60.0586L57.483 62.0046L57.3048 63.0008C57.0902 64.3223 57.0425 65.6641 57.0147 67L57 70L57 80L57.0039 84C57.0157 85.3359 57.0431 86.6691 57.1698 88L57.7145 92L57.9105 94L57.9853 96L57.9954 98C57.9804 99.3364 57.957 100.668 57.8302 102C57.6709 103.675 57.3291 105.325 57.1698 107C56.9799 108.994 57.0032 110.999 57 113L57.0008 117C57.0114 118.669 57.0114 120.336 57.1698 122L57.7145 126C57.8379 126.999 57.9166 127.994 57.9606 129L57.9992 132L58 136L58 147L58.0008 157L58.0586 159.996L58.1481 160.985L58.6034 162.891L59.6034 164.562L60.3171 165.242L62.0432 166.149L62.9753 166.338L63.8958 166.338L65.5664 165.777L66.821 164.562L67.2577 163.771L67.5664 162.891L67.7716 161.956L67.956 159.996L67.9846 158.999L67.9992 157L68 153L68 143L68 76L67.9992 66L67.9414 63.0008L67.8519 62.0046L67.3966 60.0586L66.3966 58.3187L65.6821 57.608L63.946 56.662L63 56.466L62.0532 56.466L60.3032 57.0471M348 56.4282L345 56.9236C343.653 57.1571 342.315 57.4037 341 57.7816C339.296 58.2714 337.641 58.9371 336 59.6049C334.298 60.2977 332.616 61.0219 331 61.9005C329.276 62.838 327.635 63.9208 326 65.0039C324.303 66.1279 322.6 67.2573 321 68.5177C319.239 69.9054 317.599 71.4302 316.015 73.0147L314.093 75.0008L312.326 77L311.518 78C310.53 79.3003 309.584 80.6266 308.7 82C307.865 83.2966 307.067 84.6197 306.377 86C305.888 86.9776 305.464 87.9817 305.069 89C304.686 89.9848 304.34 90.9906 304.029 92C303.619 93.3251 303.232 94.6546 302.895 96L302.211 99C301.789 100.982 301.372 102.981 301.171 105C301.038 106.33 301.016 107.665 301.004 109L301.005 112L301.019 112.999L301.148 114.981L301.603 116.847L302.599 118.338L304.09 119.079L304.91 119.079L305.701 118.824L306.977 117.663L307.721 115.941L308.111 113.995L308.266 112.999C308.536 111.338 308.779 109.678 308.914 108L309.025 106C309.09 104.995 309.156 103.998 309.3 103C309.495 101.653 309.793 100.317 310.134 99C310.394 97.9954 310.647 96.989 310.964 96C311.402 94.6297 311.935 93.2988 312.553 92C314.085 88.7847 316.08 85.8242 318.236 83C319.01 81.9869 319.805 80.9871 320.616 80.0039C321.712 78.6749 322.836 77.3693 324.09 76.1844C325.603 74.7542 327.277 73.5229 329 72.3596C329.981 71.6971 330.985 71.0742 332 70.4645L334 69.3735L335 68.8904C335.991 68.4427 336.988 68.015 338 67.6157C339.955 66.8445 341.947 66.1436 344 65.6798C344.986 65.4569 345.991 65.263 347 65.1736C349.659 64.9379 352.333 65 355 65L359 65.0039C360.001 65.0215 361.002 65.016 362 65.1042C363.018 65.1941 364.009 65.3584 365 65.6088C366.361 65.9526 367.686 66.4679 369 66.9545C371.047 67.7122 373.095 68.4515 375 69.5316C376.771 70.5359 378.399 71.7631 379.999 73.0154C381.67 74.3228 383.328 75.6687 384.829 77.1705C386.332 78.6727 387.676 80.3306 388.985 82.0008C390.247 83.6111 391.463 85.2539 392.532 87C393.894 89.223 395.006 91.5867 395.985 94C396.648 95.6369 397.252 97.2929 397.711 99C398.064 100.318 398.322 101.658 398.56 103L398.829 105L398.961 107L399.04 113C399.074 113.99 399.136 115.01 399.344 115.981L399.894 117.852L400.318 118.681L400.857 119.392L401.509 119.953L403.076 120.534L403.91 120.534L404.715 120.338L406.062 119.392L406.967 117.852L407.502 115.981L407.656 114.995L407.736 113.999L407.675 112L407.421 110C407.289 109 407.158 108.007 407.09 107C406.976 105.336 407.017 103.666 406.961 102C406.915 100.656 406.774 99.3232 406.535 98C406.104 95.6077 405.388 93.2726 404.536 91L404.124 90L402.741 87L401.218 84C400.682 82.9857 400.135 81.9771 399.533 81C398.899 79.9703 398.212 78.984 397.51 78L395.985 76.0039L394.384 74.0394L392.711 72.1736L390.91 70.4637L389.961 69.6659L387.996 68.1312L386 66.6412C385.013 65.9225 384.018 65.2227 383 64.5471L381 63.338C378.754 62.0582 376.385 61.0005 374 60.0116L371 58.8148C370.011 58.4395 369.018 58.0741 368 57.7816C366.36 57.3105 364.68 57.0352 363 56.7546L360 56.2863L359 56.1698C357.667 56.0601 356.337 56.0046 355 56.0046C353.667 56.0046 352.331 56.0003 351 56.0895C349.993 56.157 348.999 56.2849 348 56.4282M290 62C288.903 64.3094 287.762 66.6003 286.875 69.0015C285.902 71.6367 285.273 74.3851 284.241 77C283.565 78.7104 282.716 80.3348 281.941 82C281.176 83.6443 280.472 85.3108 279.812 87C277.759 92.2555 276.2 97.6873 274.308 103C273.224 106.042 272.01 109.041 270.716 112L268.111 117.84L267.724 118.841L267.511 119.329L267 121L264 121L263.49 119.329L263.279 118.841L262.9 117.84L260.88 113L260.054 111L259.282 109C258.802 107.666 258.354 106.32 257.834 105L256.144 101L255.37 99L254.334 96C253.548 93.6728 252.761 91.3437 252.025 89L250.495 84L249.191 80C248.669 78.3325 248.204 76.6479 247.62 75C247.022 73.3101 246.322 71.6578 245.641 70C245.231 69.0013 244.839 68.0005 244.387 67.0193L243.875 66.0586L242.571 64.3225L240.895 63.0864L239.029 62.6358L237.228 63.0864L235.746 64.3225L235.194 65.1489L234.782 66.0586L234.524 67.0193L234.409 69.0008L234.508 70L234.903 72C235.317 73.6862 235.815 75.3469 236.344 77C236.882 78.6776 237.456 80.343 238.053 82L239.576 86L241.047 90L242.495 94L243.861 98C244.833 100.688 245.962 103.316 246.947 106L248.691 111L250.495 116L251.505 119L254.783 128L255.495 130L256.505 133L258.309 138L259.711 141.985L260.558 143.891L261.702 145.562L262.419 146.238L263.224 146.762L264.103 147.11L265.961 147.168L266.87 146.863L268.49 145.667L269.157 144.848L269.722 143.941L270.613 141.995L270.985 140.999L272.053 138L274.308 132L276.003 127C276.46 125.66 276.923 124.324 277.424 123L279.308 118C280.127 115.7 280.815 113.349 281.742 111.09C282.355 109.597 283.105 108.172 283.793 106.715L285.482 102.985L286.772 100C287.318 98.6797 287.833 97.3472 288.308 96C289.013 93.9996 289.676 91.9849 290.425 90C291.059 88.3212 291.731 86.655 292.424 85C293.263 82.999 294.157 81.0243 294.939 79L296.047 76L296.782 74L297.481 72L297.79 71L298.301 69.0008L298.551 67.0193L298.306 65.1481L297.382 63.6034L295.856 62.6034L294.025 62.1481L293.156 62.0586C292.099 62.001 291.06 62.0125 290 62M706 93L707.569 94.0864L708.835 95.321L710.275 97.0586L712.424 100.001L713.898 102L716.26 105L717.906 107C718.704 107.989 719.492 108.982 720.255 110L722.421 113L725.291 117L728.884 122C730.373 124.018 731.885 126.021 733.424 128L736.576 132L738.87 135L741.849 139L743.294 141L745.515 143.981L747.184 145.847L749.039 147.338L750.01 147.824L750.985 148.079L751.942 148.079L753.682 147.338L754.397 146.663L754.972 145.847L755.682 143.981L755.941 141.999L755.999 139L756 132L756 81L755.996 74L755.91 71L755.695 69.0008L755.276 67.0193L754.968 66.0594L754.566 65.1528L754.062 64.3372L753.436 63.662L751.86 62.9213L750.025 63.1759L749.104 63.662L748.228 64.3372L746.742 66.0594L745.742 68.0046L745.434 69.0008L745.109 71L745.015 73L745 76L745 83L745 104L744.995 110L744.941 111.995L744.852 112.976L744.683 113.922L743.987 115.534L743.436 116.079L742.772 116.369L742.022 116.369L740.409 115.534L738.754 113.922C737.618 112.659 736.537 111.345 735.5 110C734.492 108.692 733.544 107.34 732.579 106L729.709 102C728.275 99.9846 726.847 97.9664 725.346 96C722.765 92.6203 720.038 89.3544 717.424 86C715.124 83.0475 712.889 80.0426 710.71 77C709.268 74.9869 707.852 72.9588 706.331 71.0039L704.7 69.044L702.91 67.233L701.961 66.4529L700.986 65.8009L700.001 65.3272L698.059 65.037L696.318 65.7122L695.603 66.3619L695.028 67.1636L694.318 69.0201L694.059 71.0008L694.001 74L694 83L694 132L694 136L694.004 139C694.018 140.002 694.039 140.996 694.109 141.996L694.434 143.956L695.179 145.771L695.742 146.562L696.434 147.242L698.105 148.149L699.971 148.338L700.895 148.149L702.566 147.242L703.821 145.771L704.566 143.956L704.891 141.996L704.956 140.999L705 137L704.999 133C704.995 131.667 705.002 130.331 704.911 129C704.75 126.652 704.25 124.348 704.089 122C703.998 120.669 704.004 119.333 704.001 118L704 113L704.001 107C704.009 105.332 704.004 103.662 704.171 102C704.271 100.996 704.427 99.996 704.616 99.0046C704.892 97.5519 705.205 96.1086 705.552 94.6713L706 93M172.225 67.8904L170.742 68.7616L170.179 69.4383L169.742 70.2292L169.228 72.044L169.044 74.0039L169.001 77L169 86L169 143L169.001 152L169.059 154.999L169.148 155.995L169.603 157.941L170.603 159.677L171.318 160.377L172.147 160.914L174 161.364L174.946 161.248L176.682 160.377L177.397 159.677L177.972 158.851L178.682 156.981L178.941 154.999L178.999 152L179 143L179 86L179 81L178.996 78C178.963 75.6592 178.985 73.1735 177.821 71.0594L176.567 69.3333L175.775 68.6474L174.907 68.1366L173.093 67.7515L172.225 67.8904M518 132L516.329 132.426L515.841 132.617L513.955 133.363L511.995 134.324L510 135.425C507.707 136.734 505.435 138.087 503 139.12C501.709 139.668 500.374 140.179 499 140.475L498 140.685L497 140.85L495 141.09C493.999 141.18 493.005 141.255 492 141.289C490.667 141.335 489.327 141.223 488 141.115C486.662 141.006 485.313 140.905 484 140.613C482.966 140.383 481.982 140.043 481 139.648L480 139.204C478.993 138.732 477.987 138.255 477 137.741L475 136.688L473 135.532C471.974 134.879 470.963 134.216 470.001 133.471L468.015 131.815L467.04 130.907L466.093 129.96L464.329 127.996L462.789 126C462.081 125.049 461.484 124.019 460.88 123L459.824 121L458.954 119C458.46 117.7 458.111 116.359 457.819 115C457.537 113.68 457.303 112.344 457.171 111C457.072 110.003 457.029 109.002 457.029 108C457.03 106.662 457.106 105.325 457.301 104C457.551 102.3 457.977 100.621 458.548 99C458.908 97.9773 459.34 96.9844 459.792 96C460.257 94.9896 460.746 93.9848 461.263 93L462.352 91L462.966 90L463.637 89.0008L465.213 87.0147L466.105 86.0401L468.015 84.1852L470.001 82.5324L471 81.8001L473 80.5293L474 79.9846L475 79.49L477 78.591L479 77.7346L481 76.9398C482.631 76.359 484.299 75.9394 486 75.6188C486.989 75.4324 487.995 75.2493 489 75.1713L491 75.054C492.004 75.0542 493 75.0704 494 75.1744C496.757 75.4609 499.469 76.2256 502 77.3488C503.38 77.9612 504.694 78.6985 506 79.4529L508 80.6798L509 81.3009C510.283 82.0573 511.559 82.8116 512.975 83.2978L514.84 83.7755L515.841 83.8927L516.329 83.9537L518 84L518.31 81.8449L518.316 80.8542L518.169 79.9946L517.503 78.169L516.343 76.4676L514.786 74.9275L512.957 73.5486C511.992 72.9278 511.019 72.347 509.999 71.821C509.021 71.3165 508.017 70.8843 507 70.4645L505 69.7492C503.692 69.3 502.338 68.9737 501 68.6296L499 68.1304C497.674 67.8151 496.351 67.4931 495 67.3002C493.342 67.0633 491.672 67.0077 490 67.0077C488.662 67.0077 487.333 67.0589 486 67.1736L484 67.4637C482.991 67.6421 481.996 67.8933 481 68.1312L480 68.3781L478 68.9136L476 69.5586L474 70.4028C472.235 71.2514 470.584 72.3233 469.015 73.49C467.397 74.6921 465.865 76.0153 464.439 77.439C462.706 79.1697 461.149 81.0664 459.654 83.0039C457.935 85.2324 456.259 87.5276 454.904 90C454.369 90.977 453.91 91.9797 453.465 93L452.7 95L452.36 96L451.761 98C451.509 98.9844 451.283 99.9866 451.184 101L451.04 103L451 107L451.004 110C451.013 111 451.017 112.002 451.09 113C451.164 114.008 451.282 115.006 451.465 116C451.65 117.013 451.904 118.007 452.171 119C452.444 120.02 452.795 121.025 453.198 122C453.912 123.727 454.82 125.378 455.742 127C456.318 128.012 456.894 129.033 457.545 130L458.927 132C459.704 133.012 460.458 134.04 461.301 134.999L463.09 136.985L465.015 138.907L466.004 139.816L468 141.482C468.965 142.242 469.97 142.969 471 143.637C471.985 144.277 472.968 144.917 474 145.481C474.972 146.013 475.968 146.479 477 146.881C477.975 147.261 478.987 147.578 480 147.84C481.65 148.267 483.303 148.644 485 148.826C485.997 148.933 486.999 148.964 488 148.985L491 148.999C493 148.993 495.022 149.018 497 148.671L499 148.211L501 147.535L505 145.85C506.335 145.276 507.686 144.731 509 144.11C510.021 143.628 511.022 143.109 511.996 142.535C512.993 141.949 513.948 141.308 514.891 140.64L515.772 139.957L517.255 138.484L518.224 136.84L518.611 135.12L518.534 134.144L518 132M541.21 68.1759L539.742 69.3372L539.179 70.1528L538.434 72.0193L538.109 74.0008C538.039 75.0018 538.018 75.9969 538.004 77L538 80L538 85L538 101L538 133L538.001 135C538.012 136.336 538.018 137.666 538.094 139L538.344 140.999L538.893 142.981L539.858 144.852L540.514 145.682L541.279 146.397L543.055 147.397L544.018 147.682L545.005 147.852L547 147.981L548 147.995L550 148L569 148L578 148L582 147.999L583.999 147.981L585.981 147.852C586.903 147.718 587.881 147.519 588.663 146.973L589.824 145.701L590.079 144.91L590.079 144.09L589.824 143.298L588.663 142.012L587.847 141.565L585.981 140.993C584.681 140.701 583.33 140.581 582 140.572C580.662 140.563 579.331 140.732 578 140.845L576 140.961C574.335 141.026 572.666 140.999 571 141L566 140.985C564.66 140.953 563.33 140.887 562 140.715L559 140.285L557 140.09L555 140.01L553.005 139.942L552.019 139.852L550.148 139.397L548.603 138.397L548.028 137.682L547.603 136.852L547.318 135.941L547.148 134.981L547.019 132.999L547.005 132L546.985 129L546.911 127L546.714 125L546.428 123C546.304 121.998 546.187 121.012 546.175 120C546.159 118.664 546.328 117.332 546.407 116L546.406 114C546.369 112.999 546.24 111.998 546.155 111L546.039 109C545.987 107.668 546.001 106.333 546 105L546 99L546 92C546.003 90.3345 545.976 88.6628 546.089 87C546.158 85.9929 546.288 84.9996 546.424 84L546.714 82L546.911 80L546.96 79C546.991 77.6641 546.987 76.3343 546.906 75L546.656 73.0046L546.107 71.0594L545.143 69.3372L544.49 68.662L543.737 68.1759L542.054 67.9213L541.21 68.1759M426 147L426.931 144.841L427.306 143.84L427.83 141.975C428.048 140.988 428.239 139.997 428.406 139C428.684 137.344 428.921 135.683 428.921 134C428.921 132.994 428.834 131.998 428.714 131L428.285 128L428.09 126L428.004 123L428 118L428 110L428 86L428 81L427.996 78C427.982 76.9969 427.961 76.0018 427.891 75.0008L427.772 74.0046L427.258 72.0633L426.262 70.3765L425.585 69.7515L424.826 69.3457L423.235 69.3457L422.498 69.7515L421.317 71.1674L420.894 72.0633L420.573 73.0201L420.189 75.0008L420.04 77L420.001 80L420 87L420 132L420 136L420.015 139L420.109 140.995L420.228 141.981L420.434 142.941L421.174 144.682L422.389 145.972L423.949 146.685L424.375 146.84L426 147M627 69.4676C625.298 69.7866 623.624 70.2785 622 70.8765C620.273 71.5126 618.584 72.2675 617 73.2099C615.601 74.0423 614.289 75.0086 613.015 76.0185C611.719 77.0449 610.459 78.1204 609.289 79.2894C607.819 80.7594 606.502 82.3765 605.211 84.0039C603.446 86.2299 601.732 88.5116 600.349 91C599.63 92.2925 599.028 93.6347 598.464 95L598.09 96C597.721 96.9803 597.444 97.9934 597.159 99C596.788 100.309 596.494 101.654 596.3 103C596.061 104.657 596.008 106.328 596.008 108C596.008 109.33 596.017 110.677 596.171 112C596.484 114.704 597.027 117.381 597.771 120C598.157 121.361 598.687 122.685 599.204 124C599.872 125.696 600.576 127.373 601.399 129C601.927 130.043 602.567 131.036 603.224 132C604.649 134.091 606.265 136.071 608.09 137.826C609.009 138.71 609.986 139.551 611.004 140.319L612.001 141.073C613.297 141.993 614.609 142.878 616 143.651C617.292 144.37 618.635 144.972 620 145.535L621 145.91C621.98 146.279 622.993 146.556 624 146.841C624.984 147.12 625.993 147.354 627 147.535L629 147.826L631 147.961L636 148L640 147.985C641.34 147.957 642.676 147.896 644 147.674C645.358 147.448 646.697 147.083 648 146.64C649.698 146.064 651.375 145.438 653 144.677C655.091 143.698 657.122 142.557 659 141.211C660.774 139.941 662.418 138.502 663.96 136.96C665.502 135.418 666.941 133.774 668.211 132C668.9 131.039 669.547 130.034 670.12 129L670.676 128C671.353 126.691 671.995 125.371 672.536 124C673.301 122.061 673.896 120.039 674.331 118C674.542 117.011 674.737 116.009 674.826 115C675.032 112.672 675.003 110.335 675 108C674.997 105.664 675.034 103.319 674.7 101C674.506 99.6537 674.212 98.3086 673.841 97C673.459 95.6517 673.07 94.2979 672.536 93L671.676 91C671.017 89.6361 670.328 88.29 669.532 87C668.894 85.967 668.211 84.9657 667.475 84.0008C666.434 82.6377 665.298 81.3479 664.13 80.0934C663.306 79.2088 662.467 78.3336 661.575 77.5177C660.73 76.7452 659.841 76.029 658.911 75.3627C657.972 74.6908 656.993 74.097 655.996 73.5177L654 72.5177L653 72.0934C652.007 71.707 651.008 71.3482 650 71.0046C648.038 70.3362 646.05 69.6673 644 69.3256C642.675 69.1049 641.34 69.0434 640 69.0147L636 69C632.995 69 629.968 68.9114 627 69.4676M354 76.5177C352.297 76.8811 350.626 77.4483 349 78.0656C346.158 79.1446 343.396 80.4767 341.015 82.3904C338.68 84.2663 336.762 86.5606 335.044 89C333.711 90.8924 332.463 92.8779 331.529 95C330.962 96.2873 330.512 97.6387 330.16 99C329.902 99.9964 329.667 100.991 329.465 102L329.174 104L329.09 105C329.038 106.001 329.012 106.998 329.005 108C328.988 110.341 329.003 112.707 329.529 115C330.009 117.089 330.86 119.075 331.785 121C332.617 122.729 333.518 124.437 334.637 126C335.657 127.424 336.823 128.731 338.043 129.985C338.989 130.956 339.968 131.908 341.001 132.787C341.948 133.594 342.935 134.382 344 135.031L345 135.637L347 136.672L349 137.532C350.29 138.061 351.647 138.433 353 138.761L355 139.188C356.327 139.427 357.647 139.654 359 139.66C360.344 139.666 361.673 139.448 363 139.267C364.67 139.039 366.354 138.857 368 138.486C369.017 138.257 370.007 137.952 371 137.64L372 137.3L374 136.535L375 136.099L376 135.623L378 134.521L379.996 133.211L380.985 132.471L382.907 130.815C384.707 129.099 386.236 127.126 387.521 125C388.666 123.106 389.559 121.082 390.3 119C390.879 117.373 391.389 115.706 391.674 114C392.005 112.017 391.993 110.003 391.999 108L391.985 105C391.957 103.66 391.895 102.325 391.674 101C391.448 99.6419 391.077 98.308 390.651 97C389.984 94.9493 389.293 92.8944 388.246 91C387.258 89.2133 386.031 87.5558 384.696 86.0147C382.489 83.4675 379.934 81.2094 377 79.5324L375 78.5185L374 78.0941L372 77.3627C371.024 77.0206 370.011 76.7338 369 76.5177L367 76.1844L365 76.0401L362 76.0008C360.666 75.9964 359.333 76.0018 358 76.0401L356 76.1844L354 76.5177M630 77.3256C631.324 77.1045 632.66 77.0434 634 77.0147L637 77.0008C638.664 77.0062 640.346 76.9785 642 77.1852L644 77.5293L645 77.7894L647 78.4792C648.393 79.032 649.703 79.7324 651 80.4792L652 81.108L654 82.5293L655 83.3287C656.023 84.2045 657.023 85.0965 657.985 86.0401C658.955 86.9926 659.877 87.9809 660.775 89.0008L661.582 90L662.925 92L663.945 94L664.792 96L665.56 98L666.214 100L666.672 102L666.819 103L667.071 106C667.236 107.994 667.516 109.995 667.391 112C667.328 113.008 667.163 114.01 666.971 115C666.708 116.351 666.362 117.684 665.961 119C665.334 121.052 664.596 123.097 663.598 125L662.441 127L661.072 128.996L660.319 129.985C659.307 131.316 658.158 132.56 656.91 133.671C655.411 135.005 653.738 136.126 652 137.12C650.406 138.031 648.745 138.823 647 139.401C646.017 139.727 645.008 139.952 644 140.181L642 140.56C641.004 140.721 640.007 140.842 639 140.91C637.67 141 636.332 141.005 635 140.995C633.998 140.988 633.001 140.962 632 140.91L631 140.826L629 140.535L627 140.097L626 139.829L624 139.186C621.86 138.379 619.878 137.245 618.001 135.945L616.015 134.481L615.04 133.674L614.093 132.816L612.326 130.96L610.764 128.996L610.055 127.999C609.19 126.703 608.357 125.395 607.659 124C606.409 121.499 605.523 118.779 605.184 116C605.063 115.005 605.036 114.001 605.015 113L605 110L605.004 106C605.021 104.999 605.016 103.998 605.104 103C605.194 101.983 605.355 100.989 605.61 100C605.871 98.9828 606.227 97.9694 606.63 97L607.494 95L607.985 94L608.529 93L609.796 91.0008L610.518 90.0039L612.096 88.0394C612.891 87.0965 613.725 86.1801 614.59 85.3009C615.682 84.1916 616.831 83.1429 618.089 82.2238C619.017 81.5464 619.988 80.9377 621.004 80.402C622.286 79.7261 623.637 79.1867 625 78.6998C626.626 78.1191 628.294 77.6104 630 77.3256M191.603 83.0324L190.603 84.3179L190.318 85.1481L190.148 86.0586L190.059 87.0193L190.019 88.0046L190.005 89.0008L190 92L190 98L190 140C190.001 141.664 189.965 143.333 190.059 144.995L190.318 146.941L190.603 147.852L191.603 149.392L192.317 149.953L193.144 150.338L194.039 150.534L194.961 150.534L196.684 149.953L197.987 148.681L198.436 147.852L199.022 145.981L199.405 143.999L199.711 142L199.886 140L199.91 139L199.86 136L199.86 134C199.886 132.666 199.933 131.334 199.9 130L199.745 127L199.71 125C199.724 123.998 199.808 122.999 199.87 122L199.965 120L200 116L200 110L200 104C199.997 102.332 200.001 100.666 199.91 99C199.856 97.9927 199.707 96.9988 199.576 96L199.17 93L199.039 91L199.01 90L198.942 88.0046L198.682 86.0586L197.972 84.3179L196.683 83.0324L195.856 82.6227L194.961 82.3766L194.039 82.2963L193.144 82.3766L191.603 83.0324M41.061 85.0864L39.3904 85.9375L38.652 86.588L38.0093 87.348L37.0093 89.0941L36.3943 91.0147L36.2137 92.0039L36.1049 93.0008L36.0154 95L36.0008 97L36 101L36 111L36 120L36.0039 123L36.0401 125L36.1852 126.999L36.5332 128.985L37.1481 130.891L38.0895 132.562L39.4182 133.762L41.0887 134.248L41.9853 134.168L42.8673 133.863L44.3974 132.667L45.3966 130.941L45.8519 128.995L45.9414 127.999L45.9954 126L46 124L46 106L45.9992 94C45.9922 92.6753 46.0271 91.3353 45.8912 90.0154L45.5664 88.1096L45.2577 87.233L44.2585 85.7971L43.5702 85.3125L42.787 85.0208L41.9344 84.9475L41.061 85.0864M358 87.3048C359.644 87.0589 361.357 86.9803 363 87.2785L365 87.8148L366 88.2137L368 89.1975C369.024 89.7375 370.009 90.3347 370.985 90.9552L371.96 91.6343L372.907 92.3897L373.816 93.213L374.674 94.1049L376.235 96.0154C376.954 96.97 377.585 97.9746 378.196 99L378.721 100L379.157 101L379.722 103L379.945 105L379.995 107C379.995 108.663 380.029 110.356 379.737 112C379.427 113.748 378.786 115.394 378.036 116.996C377.259 118.657 376.371 120.28 375.201 121.699C373.498 123.764 371.289 125.379 368.996 126.731C366.84 128.003 364.49 129.082 362 129.481L360 129.655L358 129.518C356.988 129.358 355.987 129.174 355 128.894C353.971 128.602 352.976 128.239 352 127.801C350.976 127.341 349.994 126.798 349.015 126.25C347.711 125.519 346.45 124.671 345.39 123.61C344.33 122.55 343.479 121.289 342.75 119.985L342.198 118.996L341.214 117L340.815 116L340.275 114L340.055 112L340.002 109L340.055 106L340.275 104L340.815 102L341.213 101L342.183 99.0039L342.711 98.0147L343.785 96.0934C344.335 95.1878 344.914 94.3085 345.637 93.5285C346.885 92.1826 348.438 91.1598 350.015 90.2438C351.29 89.5038 352.616 88.8407 354 88.3295C355.294 87.8517 356.636 87.5087 358 87.3048M113.263 89.0864L111.857 90.3225L111.318 91.1489L110.894 92.0586L110.344 94.0046L110.189 95.0008L110.094 96L110.015 98L110.001 100L110 103L110 112L110.001 117C110.01 119.006 110.017 121.009 110.29 123C110.428 124.006 110.628 124.993 110.863 125.981L111.148 126.941L111.988 128.677L113.309 129.914L115 130.364L116.687 129.914L117.972 128.677L118.397 127.851L118.682 126.941L118.852 125.981L118.941 124.995C119.003 123.664 118.997 122.333 119 121L119 104L118.999 98L118.985 96L118.956 95.0008L118.772 93.0193L118.566 92.0586L117.821 90.3225L116.571 89.0864L114.946 88.6358L113.263 89.0864M212.224 91.8904L211.433 92.2377L210.179 93.4383L209.434 95.1088L209.228 96.044L209.044 98.0039L209.015 99.0008L209 102L209 109L209 115L209.019 117.999L209.059 118.995L209.318 120.941L209.603 121.851L210.027 122.677L211.302 123.914L212.951 124.364L213.795 124.248L215.298 123.377L215.91 122.677L216.427 121.851L216.852 120.941L217.196 119.981L217.671 117.999C217.97 116.352 217.976 114.668 217.996 113L218 107L217.999 101L217.941 98.0008L217.852 97.0046L217.397 95.0594L216.972 94.152L215.686 92.6474L214.867 92.1366L213.985 91.8318L212.224 91.8904M23.223 106.89L21.7276 107.762L21.1397 108.438L20.6528 109.229L20.2647 110.109L19.6998 112.015L19.4059 114L19.3873 114.996L19.4846 115.985L19.6921 116.956L20.4606 118.771L21.652 120.242L22.3904 120.777L23.1983 121.149L24.9344 121.338L25.787 121.149L26.5702 120.777L27.821 119.562L28.5664 117.891L28.8904 115.985L28.9653 113.999L28.8511 112.005L28.3966 110.059L27.9722 109.152L26.686 107.647L25.8673 107.137L24.9853 106.832L24.0895 106.752L23.223 106.89z"/>
</svg>
